<?xml version="1.0" encoding="UTF-8"?>
<svg width="26px" height="26px" viewBox="0 0 26 26" version="1.1" xmlns="http://www.w3.org/2000/svg" xmlns:xlink="http://www.w3.org/1999/xlink">
    <title>Artboard Copy 4</title>
    <g id="Artboard-Copy-4" stroke="none" stroke-width="1" fill="none" fill-rule="evenodd">
        <path d="M7.87781525,21.7886276 C8.18671418,21.7886276 8.50009919,21.7009888 8.81797028,21.5257111 L8.81797028,21.5257111 L20.2020493,14.8757324 C20.6132736,14.6325226 20.9052963,14.410862 21.0781174,14.2107506 C21.2509384,14.0106392 21.3373489,13.772583 21.3373489,13.496582 C21.3373489,13.2205811 21.2509384,12.9810028 21.0781174,12.7778473 C20.9052963,12.5746918 20.6132736,12.3545532 20.2020493,12.1174316 L20.2020493,12.1174316 L8.81797028,5.467453 C8.50009919,5.29217529 8.18671418,5.20453644 7.87781525,5.20453644 C7.51903535,5.20453644 7.21128464,5.32694244 6.95456315,5.57175446 C6.69784165,5.81656647 6.5694809,6.19179535 6.5694809,6.6974411 L6.5694809,6.6974411 L6.5694809,20.2864304 C6.5694809,20.7982712 6.69784165,21.1765976 6.95456315,21.4214096 C7.21128464,21.6662216 7.51903535,21.7886276 7.87781525,21.7886276 Z" id="􀊄" fill="#FFFFFF" fill-rule="nonzero"></path>
    </g>
</svg>