<?xml version="1.0" encoding="UTF-8"?>
<svg width="26px" height="26px" viewBox="0 0 26 26" version="1.1" xmlns="http://www.w3.org/2000/svg" xmlns:xlink="http://www.w3.org/1999/xlink">
    <title>Artboard Copy 5</title>
    <g id="Artboard-Copy-5" stroke="none" stroke-width="1" fill="none" fill-rule="evenodd">
        <path d="M10.4301417,21.654686 C10.8778956,21.654686 11.2137378,21.5411987 11.4376681,21.3142242 C11.6615985,21.0872498 11.7735637,20.7529297 11.7735637,20.311264 L11.7735637,20.311264 L11.7735637,6.68093872 C11.7735637,6.22335815 11.6615985,5.88521957 11.4376681,5.66652298 C11.2137378,5.44782639 10.8778956,5.33847809 10.4301417,5.33847809 L10.4301417,5.33847809 L8.19078474,5.33847809 C7.74911909,5.33847809 7.41479902,5.45196533 7.18782454,5.67893982 C6.96085005,5.90591431 6.8473628,6.23991394 6.8473628,6.68093872 L6.8473628,6.68093872 L6.8473628,20.311264 C6.8473628,20.7529297 6.96052961,21.0872498 7.18686323,21.3142242 C7.41319685,21.5411987 7.74783735,21.654686 8.19078474,21.654686 L8.19078474,21.654686 L10.4301417,21.654686 Z M17.64024,21.654686 C18.0817988,21.654686 18.4160922,21.5411987 18.6431201,21.3142242 C18.870148,21.0872498 18.9836619,20.7529297 18.9836619,20.311264 L18.9836619,20.311264 L18.9836619,6.68093872 C18.9836619,6.22335815 18.870148,5.88521957 18.6431201,5.66652298 C18.4160922,5.44782639 18.0817988,5.33847809 17.64024,5.33847809 L17.64024,5.33847809 L15.400883,5.33847809 C14.9531291,5.33847809 14.6157382,5.45196533 14.3887103,5.67893982 C14.1616824,5.90591431 14.0481685,6.23991394 14.0481685,6.68093872 L14.0481685,6.68093872 L14.0481685,20.311264 C14.0481685,20.7529297 14.1613353,21.0872498 14.3876689,21.3142242 C14.6140025,21.5411987 14.9517406,21.654686 15.400883,21.654686 L15.400883,21.654686 L17.64024,21.654686 Z" id="􀊆" fill="#FFFFFF" fill-rule="nonzero"></path>
    </g>
</svg>