<?xml version="1.0" encoding="UTF-8"?>
<svg width="24px" height="24px" viewBox="0 0 24 24" version="1.1" xmlns="http://www.w3.org/2000/svg" xmlns:xlink="http://www.w3.org/1999/xlink">
    <title>Artboard</title>
    <g id="Artboard" stroke="none" stroke-width="1" fill="none" fill-rule="evenodd" opacity="0.644500732">
        <path d="M12.8095207,21.2516861 C13.0550804,21.2516861 13.2618879,21.1818161 13.4299431,21.0420761 C13.5979983,20.9023361 13.7116458,20.7130686 13.7708855,20.4742737 L13.7708855,20.4742737 L14.2183723,18.5795212 C14.3752174,18.5268529 14.5303472,18.470005 14.6837616,18.4089775 C14.837176,18.34795 14.9836566,18.2829844 15.1232033,18.2140808 L15.1232033,18.2140808 L16.7802238,19.2342987 C16.9801699,19.3602193 17.190553,19.4130084 17.4113731,19.3926659 C17.6321932,19.3723234 17.8258578,19.2788493 17.9923668,19.1122437 L17.9923668,19.1122437 L19.1215935,17.9822922 C19.2942874,17.8156865 19.3905156,17.6188812 19.4102783,17.3918762 C19.430041,17.1648712 19.3711154,16.951444 19.2335014,16.7515945 L19.2335014,16.7515945 L18.2234306,15.1037064 C18.2928174,14.9592311 18.3579038,14.8132095 18.4186897,14.6656418 C18.4794757,14.518074 18.5331103,14.3689601 18.5795937,14.2182999 L18.5795937,14.2182999 L20.4844933,13.7718277 C20.7282168,13.712588 20.9171702,13.5989405 21.0513535,13.4308853 C21.1855367,13.2628301 21.2526283,13.0560226 21.2526283,12.810463 L21.2526283,12.810463 L21.2526283,11.2285309 C21.2526283,10.9891561 21.1855367,10.785272 21.0513535,10.6168785 C20.9171702,10.4484851 20.7282168,10.3346685 20.4844933,10.2754288 L20.4844933,10.2754288 L18.5897408,9.82141876 C18.5376523,9.65346018 18.4812393,9.49429576 18.4205017,9.34392548 C18.3597641,9.1935552 18.3002586,9.05449168 18.2419853,8.92673492 L18.2419853,8.92673492 L19.2529259,7.2576828 C19.3849347,7.04546356 19.4421692,6.83189138 19.4246292,6.61696625 C19.4070892,6.40204112 19.3119723,6.20847321 19.1392784,6.03626251 L19.1392784,6.03626251 L17.9906273,4.90529633 C17.8185132,4.7473882 17.6289558,4.65376918 17.4219551,4.62443924 C17.2149544,4.5951093 17.0115293,4.64214834 16.8116798,4.76555634 L16.8116798,4.76555634 L15.1232033,5.80621338 C14.9892616,5.74175517 14.8469607,5.67915726 14.6963005,5.61841965 C14.5456403,5.55768204 14.3866208,5.49817657 14.2192421,5.43990326 L14.2192421,5.43990326 L13.7708855,3.51731873 C13.7110659,3.27852376 13.5972735,3.09065755 13.4295082,2.95372009 C13.2617429,2.81678263 13.0550804,2.7483139 12.8095207,2.7483139 L12.8095207,2.7483139 L11.1997566,2.7483139 C10.9541969,2.7483139 10.7461332,2.81692759 10.5755653,2.95415497 C10.4049975,3.09138234 10.2926064,3.27939351 10.2383919,3.51818848 L10.2383919,3.51818848 L9.78249741,5.42134857 C9.62565231,5.47962189 9.46897634,5.53927231 9.31246948,5.60029984 C9.15596263,5.66132736 9.00793584,5.72687276 8.86838913,5.79693604 L8.86838913,5.79693604 L7.18918991,4.76555634 C6.98866399,4.64214834 6.7833786,4.59339396 6.57333374,4.61929321 C6.36328888,4.64519246 6.17530187,4.74115499 6.00937271,4.90718079 L6.00937271,4.90718079 L4.86159134,6.03626251 C4.68889745,6.20847321 4.59378052,6.40204112 4.57624054,6.61696625 C4.55870056,6.83189138 4.61593501,7.04546356 4.74794388,7.2576828 L4.74794388,7.2576828 L5.75888443,8.92673492 C5.70061111,9.05449168 5.64110565,9.1935552 5.58036804,9.34392548 C5.51963043,9.49429576 5.4629275,9.65346018 5.41025925,9.82141876 L5.41025925,9.82141876 L3.5163765,10.2754288 C3.27197647,10.3346685 3.08270899,10.4484851 2.94857407,10.6168785 C2.81443914,10.785272 2.74737167,10.9891561 2.74737167,11.2285309 L2.74737167,11.2285309 L2.74737167,12.810463 C2.74737167,13.0560226 2.81443914,13.2628301 2.94857407,13.4308853 C3.08270899,13.5989405 3.27197647,13.712588 3.5163765,13.7718277 L3.5163765,13.7718277 L5.42968369,14.2182999 C5.47056198,14.3689601 5.52139409,14.518074 5.58218002,14.6656418 C5.64296595,14.8132095 5.7077624,14.9592311 5.77656937,15.1037064 L5.77656937,15.1037064 L4.76649857,16.7515945 C4.62946447,16.951444 4.57082876,17.1648712 4.59059143,17.3918762 C4.61035411,17.6188812 4.70629247,17.8156865 4.87840652,17.9822922 L4.87840652,17.9822922 L6.00850296,19.1122437 C6.17501195,19.2788493 6.3686765,19.3723234 6.58949661,19.3926659 C6.81031672,19.4130084 7.02069982,19.3602193 7.2206459,19.2342987 L7.2206459,19.2342987 L8.87766647,18.2140808 C9.01721319,18.2829844 9.16369375,18.34795 9.31710815,18.4089775 C9.47052256,18.470005 9.62565231,18.5268529 9.78249741,18.5795212 L9.78249741,18.5795212 L10.2383919,20.4742737 C10.2920265,20.7130686 10.4042727,20.9023361 10.5751305,21.0420761 C10.7459882,21.1818161 10.9541969,21.2516861 11.1997566,21.2516861 L11.1997566,21.2516861 L12.8095207,21.2516861 Z M12.0041313,15.0792084 C11.4381167,15.0792084 10.9211222,14.9407972 10.4531479,14.6639748 C9.98517354,14.3871524 9.61277517,14.0148989 9.33595276,13.5472145 C9.05913035,13.0795301 8.92071915,12.5623906 8.92071915,11.9957962 C8.92071915,11.4292018 9.05913035,10.9120623 9.33595276,10.4443779 C9.61277517,9.97669347 9.98517354,9.60429509 10.4531479,9.32718277 C10.9211222,9.05007044 11.4381167,8.91151428 12.0041313,8.91151428 C12.5708224,8.91151428 13.0865847,9.05007044 13.5514183,9.32718277 C14.0162519,9.60429509 14.3886261,9.97669347 14.668541,10.4443779 C14.9484558,10.9120623 15.0884132,11.4292018 15.0884132,11.9957962 C15.0884132,12.5623906 14.9484558,13.0795301 14.668541,13.5472145 C14.3886261,14.0148989 14.0162519,14.3871524 13.5514183,14.6639748 C13.0865847,14.9407972 12.5708224,15.0792084 12.0041313,15.0792084 Z" id="􀣌" fill="#000000" fill-rule="nonzero"></path>
    </g>
</svg>