<?xml version="1.0" encoding="UTF-8"?>
<svg width="24px" height="24px" viewBox="0 0 24 24" version="1.1" xmlns="http://www.w3.org/2000/svg" xmlns:xlink="http://www.w3.org/1999/xlink">
    <title>Artboard Copy 3</title>
    <g id="Artboard-Copy-3" stroke="none" stroke-width="1" fill="none" fill-rule="evenodd" opacity="0.644500732">
        <path d="M12.0003624,21.846232 C13.2457492,21.846232 14.4131966,21.6126555 15.5027046,21.1455026 C16.5922127,20.6783497 17.5495669,20.0307959 18.3747673,19.2028413 C19.1999677,18.3748867 19.8461444,17.4173875 20.3132973,16.3303437 C20.7804502,15.2433 21.0140266,14.077423 21.0140266,12.8327127 C21.0140266,11.7349903 20.8301709,10.6972807 20.4624596,9.71958401 C20.0947482,8.74188727 19.5816917,7.8585102 18.9232903,7.06945278 C18.2648888,6.28039537 17.4961014,5.62047181 16.6169281,5.08968212 C15.7377548,4.55889243 14.7839521,4.19463589 13.7555199,3.9969125 L13.7555199,3.9969125 L13.7555199,2.7923074 C13.7555199,2.46972642 13.6573588,2.26903138 13.4610367,2.19022228 C13.2647146,2.11141318 13.0450783,2.16038499 12.8021278,2.33713772 L12.8021278,2.33713772 L9.9871788,4.3433633 C9.78607305,4.4843596 9.6870664,4.65053036 9.69015884,4.84187557 C9.69325129,5.03322079 9.79225794,5.19692725 9.9871788,5.33299496 L9.9871788,5.33299496 L12.8105354,7.33733608 C13.0478808,7.50790391 13.2647146,7.5539524 13.4610367,7.47548153 C13.6573588,7.39701066 13.7555199,7.19986711 13.7555199,6.88405087 L13.7555199,6.88405087 L13.7555199,5.68582394 C14.557237,5.88180782 15.299811,6.19866294 15.983242,6.63638927 C16.666673,7.07411561 17.2610029,7.60906078 17.7662315,8.24122478 C18.2714602,8.87338879 18.6638387,9.57880515 18.943367,10.3574739 C19.2228953,11.1361426 19.3626595,11.9612222 19.3626595,12.8327127 C19.3626595,13.8518675 19.1733195,14.8057186 18.7946396,15.6942659 C18.4159597,16.5828131 17.8878276,17.3643327 17.2102432,18.0388246 C16.5326589,18.7133165 15.7497381,19.2413036 14.8614807,19.6227861 C13.9732234,20.0042685 13.0195173,20.1950097 12.0003624,20.1950097 C10.9806277,20.1950097 10.0266317,20.0042685 9.13837433,19.6227861 C8.25011698,19.2413036 7.46859741,18.7133165 6.79381561,18.0388246 C6.11903381,17.3643327 5.59090169,16.5828131 5.20941925,15.6942659 C4.82793681,14.8057186 4.63719559,13.8518675 4.63719559,12.8327127 C4.63719559,12.0228779 4.75973384,11.2537039 5.00481033,10.5251908 C5.24988683,9.79667777 5.5945015,9.12940965 6.03865433,8.5233865 C6.48280716,7.91736334 7.00248337,7.39285519 7.59768295,6.94986202 C7.79076767,6.79736568 7.91294352,6.61360663 7.96421051,6.39858486 C8.0154775,6.18356309 7.97438176,5.97520941 7.84092331,5.77352383 C7.7167422,5.58159878 7.53411865,5.4691593 7.29305267,5.43620541 C7.05198669,5.40325151 6.82573064,5.47046393 6.61428452,5.63784267 C5.87518946,6.18810513 5.23510106,6.83498241 4.69401932,7.57847454 C4.15293757,8.32196667 3.73299281,9.13827628 3.43418503,10.0274034 C3.13537725,10.9165305 2.98597336,11.8516336 2.98597336,12.8327127 C2.98597336,14.077423 3.21954981,15.2433 3.68670273,16.3303437 C4.15385564,17.4173875 4.8014094,18.3748867 5.62936401,19.2028413 C6.45731862,20.0307959 7.41481781,20.6783497 8.50186157,21.1455026 C9.58890533,21.6126555 10.7550723,21.846232 12.0003624,21.846232 Z" id="􀎀" fill="#000000" fill-rule="nonzero"></path>
    </g>
</svg>